<?xml version="1.0" encoding="utf-8"?>
<!-- Generator: Adobe Illustrator 25.3.1, SVG Export Plug-In . SVG Version: 6.00 Build 0)  -->
<svg version="1.1" id="Layer_1" xmlns="http://www.w3.org/2000/svg" xmlns:xlink="http://www.w3.org/1999/xlink" x="0px" y="0px"
	 viewBox="0 0 208.9 377.8" style="enable-background:new 0 0 208.9 377.8;" xml:space="preserve">
<style type="text/css">
	.st0{fill:#F68921;}
</style>
<g>
	<g>
		<g>
			<path class="st0" d="M108.3,366.9c-15.6-18.1-34.6-32.7-50.8-50.3c-4-4.4-7.9-8.9-11.6-13.5c-1-1.2-1.9-2.4-2.8-3.6
				c-0.1-0.1-0.6-0.7-0.1-0.1c-0.2-0.3-0.5-0.6-0.7-0.9c-0.5-0.7-1-1.3-1.5-2c-1.8-2.4-3.5-4.8-5.3-7.2c-6.8-9.6-13.6-19.5-18.7-30
				c-0.3-0.7-0.6-1.3-0.9-2c-0.1-0.3-0.2-0.5-0.4-0.8c0,0-0.6-1.3-0.3-0.6c0.3,0.7-0.3-0.6-0.2-0.6c-0.1-0.3-0.2-0.5-0.3-0.8
				c-0.3-0.8-0.6-1.6-0.9-2.4c-0.8-2.4-1.5-4.9-1.9-7.5c0-0.3-0.4-1.5,0-0.2c-0.1-0.2-0.1-0.5-0.1-0.8c-0.1-0.6-0.1-1.3-0.1-1.9
				c0-1.2,0-2.5,0.1-3.7c0.1-1-0.1,0.2,0,0.3c-0.1-0.2,0.1-0.7,0.2-0.9c0.1-0.5,0.2-1.1,0.4-1.6c0.2-0.5,0.5-1.2,0.6-1.7
				c-0.1,0.8-0.3,0.6-0.1,0.2c0.2-0.4,0.4-0.7,0.6-1.1c0.1-0.2,0.3-0.5,0.5-0.7c0.5-0.8-0.2,0.2-0.2,0.2c0-0.3,1-1,1.1-1.2
				c0.7-0.7-0.3,0.2-0.2,0.2c0-0.1,0.6-0.4,0.7-0.5c0.2-0.1,0.5-0.3,0.7-0.4c0.9-0.5-1,0.3,0,0c0.3-0.1,0.5-0.2,0.8-0.2
				c0.1,0,0.1,0,0.2,0c0.6-0.1,0.5-0.1-0.3,0c0.3-0.2,1.3-0.1,1.6-0.1c0.2,0,0.7,0,0.9,0.1c-0.6-0.3-0.7-0.1-0.2,0
				c0.8,0.2,1.5,0.3,2.2,0.6c0.3,0.1,0.5,0.2,0.8,0.3c1.2,0.4-0.6-0.3,0.1,0.1c0.6,0.3,1.1,0.5,1.7,0.9c0.6,0.3,1.2,0.7,1.8,1.1
				c0.2,0.2,0.5,0.3,0.7,0.5c0.2,0.2,1.1,0.8,0.4,0.3c2.3,1.8,4.3,3.9,6.2,6.1c0.5,0.6,1,1.1,1.4,1.7c0.2,0.2,0.4,0.5,0.6,0.7
				c0.6,0.8,0.2,0.2,0,0c1,1.2,1.9,2.5,2.8,3.8c1.7,2.4,3.4,4.8,5,7.3c3.3,4.9,6.4,9.9,9.4,15c6.1,10.2,11.7,20.8,16.9,31.5
				c2.6,5.3,5,10.6,7.5,16c1.2,2.7,2.5,5.5,3.6,8.3c0.5,1.2,1.1,2.5,1.6,3.7c0.3,0.7,0.6,1.4,0.9,2.1c0.1,0.3,0.2,0.6,0.4,0.8
				c0.1,0.2,0.5,1.3,0.2,0.5c4.6,10.9,9,21.9,13.3,33c1,2.6,2.1,5.3,3.1,7.9c1,2.4,3.4,4.4,6.2,3.5c2.4-0.8,4.5-3.5,3.5-6.2
				c-9-23-18.1-46.1-28.7-68.5c-5.2-11-10.8-21.9-16.8-32.5c-6.1-10.6-12.6-21-19.9-30.7c-3.9-5.2-8.2-10.1-13.7-13.6
				c-5-3.1-11.6-5.3-17.4-3C0.7,226.2,0.4,241.4,3.4,252c3.4,11.8,10.2,22.4,16.8,32.5c7,10.6,14.5,20.9,22.7,30.6
				c7.9,9.4,16.6,18.1,25.6,26.5c9,8.4,18.1,16.6,26.5,25.5c2.1,2.2,4.1,4.5,6.1,6.8c1.7,2,5.3,1.9,7.1,0
				C110.3,371.8,110.2,369,108.3,366.9L108.3,366.9z"/>
		</g>
	</g>
	<g>
		<g>
			<path class="st0" d="M108.3,374.3c16.2-18.8,36-33.9,52.6-52.3c8.4-9.4,16.2-19.4,23.4-29.7c6.9-9.9,13.8-20.1,18.6-31.2
				c2.4-5.7,4.3-11.5,4.8-17.6c0.4-5.4-0.5-11.4-3.7-15.8c-1.9-2.7-4.3-4.7-7.5-5.9c-2.9-1.1-6.1-1-9.1-0.4
				c-6,1.3-11.4,5.3-15.6,9.6c-4.4,4.6-8.1,9.9-11.7,15.1c-3.5,5.1-6.8,10.2-10,15.4c-6.4,10.5-12.2,21.3-17.6,32.4
				c-10.9,22.1-20.1,45-29.1,67.9c-1.1,2.8-2.2,5.6-3.3,8.3c-1,2.4,1.1,5.6,3.5,6.2c2.9,0.7,5.1-0.9,6.2-3.5c4.3-11,8.7-22,13.2-33
				c1.1-2.6,2.2-5.3,3.3-7.9c-0.4,1,0.2-0.4,0.2-0.5c0.1-0.3,0.2-0.6,0.4-0.8c0.3-0.7,0.6-1.4,0.9-2.1c0.6-1.4,1.2-2.8,1.8-4.1
				c2.3-5.4,4.7-10.7,7.2-16.1c10-21.4,21.4-42.4,35.2-61.6c0.8-1.1,1.7-2.3,2.5-3.4c0.5-0.7-0.7,0.9,0.2-0.2
				c0.2-0.2,0.4-0.5,0.6-0.7c0.6-0.7,1.1-1.4,1.7-2c1.8-2.1,3.8-4,5.9-5.8c-0.9,0.7,0.3-0.2,0.4-0.3c0.2-0.2,0.5-0.3,0.7-0.5
				c0.6-0.4,1.2-0.8,1.8-1.1c0.5-0.3,1-0.5,1.5-0.8c1.2-0.6-0.9,0.3,0.3-0.1c0.4-0.1,0.7-0.3,1.1-0.4c0.6-0.2,1.1-0.3,1.7-0.4
				c0.1,0,0.1,0,0.2,0c0.6-0.1,0.5-0.1-0.2,0c0.1,0,0.6-0.1,0.7-0.1c0.6,0,1.2,0.1,1.8,0.1c-0.9,0.1-0.7-0.1-0.3,0
				c0.3,0.1,0.8,0.3,1.1,0.3c0.6,0.1-1-0.6-0.1,0c0.2,0.1,0.4,0.2,0.6,0.3c0.2,0.1,0.4,0.3,0.7,0.4c0.6,0.3-0.8-0.8-0.1-0.1
				c0.3,0.4,0.7,0.7,1,1.1c0.5,0.5-0.7-1-0.1-0.1c0.2,0.3,0.4,0.6,0.6,0.9c0.1,0.2,1.1,1.9,0.4,0.7c0.3,0.5,0.4,1,0.5,1.5
				c0.2,0.5,0.3,1,0.4,1.6c0.1,0.3,0.1,0.6,0.2,0.9c0.1,0.4,0,0.2,0-0.4c0,0.2,0.1,0.5,0.1,0.7c0.1,1.1,0.1,2.2,0.1,3.3
				c0,0.6-0.1,1.3-0.1,1.9c0,0.1,0,0.7-0.1,0.8c0.1-0.7,0.1-0.7,0-0.2c0,0.1,0,0.3-0.1,0.4c-0.4,2.7-1.2,5.3-2.1,7.9
				c-0.4,1.2-0.9,2.4-1.4,3.6c0.4-1.1-0.1,0.3-0.2,0.4c-0.1,0.3-0.2,0.5-0.4,0.8c-0.3,0.7-0.7,1.5-1,2.2c-1.3,2.6-2.6,5.1-4.1,7.6
				c-2.9,5.1-6.2,10-9.4,14.9c-3.4,5-6.9,9.9-10.5,14.8c-0.4,0.5-0.8,1.1-1.2,1.6c-0.3,0.4-0.6,0.7-0.8,1.1c0.1-0.2,0.5-0.7-0.1,0.1
				c-0.9,1.2-1.9,2.4-2.8,3.6c-1.9,2.4-3.8,4.7-5.8,7c-7.7,9-16.2,17.3-24.8,25.3c-8.8,8.2-17.6,16.2-25.8,24.9
				c-2,2.1-3.9,4.3-5.8,6.5c-1.7,2-2.1,5.2,0,7.1C103.1,376,106.5,376.4,108.3,374.3L108.3,374.3z"/>
		</g>
	</g>
	<g>
		<g>
			<path class="st0" d="M109.7,366.4c2.7-24.9,7.1-49.5,11.7-74.1c4.6-25,9.2-49.9,12.4-75.1c3.2-25.5,5.2-51.2,6.3-76.9
				c1-24,1.8-48.1,0.1-72.1c-0.7-10.6-2-21.3-4.5-31.6c-2.2-8.9-5.5-17.9-11.4-25.1c-3.4-4.2-8.5-7.6-14.1-7.7
				c-5,0-9.4,2.8-12.5,6.6c-7.1,8.6-10.2,20.3-12,31.1c-2.2,12.6-2.8,25.4-3.3,38.2c-0.5,13.1-0.7,26.2-0.8,39.3
				c0,25.8,0.9,51.6,2.4,77.4c1.5,25.6,3.7,51.2,6.2,76.7c2.5,25.3,5.3,50.6,8.2,75.9c0.7,6.2,1.4,12.3,2.1,18.5c0.3,2.7,2.1,5,5,5
				c2.5,0,5.3-2.3,5-5c-2.9-24.8-5.7-49.5-8.3-74.3c-2.6-24.9-4.9-49.8-6.7-74.7c-1.8-25.2-3.1-50.5-3.6-75.8
				c-0.5-25.3-0.3-50.6,1.1-75.8C93.6,55,94.7,43.1,98,31.8c1.5-4.9,3-9,5.9-13.3c0.3-0.4,0.5-0.8,0.8-1.2c-0.5,0.7,0.4-0.4,0.5-0.6
				c0.3-0.3,0.6-0.6,0.9-0.9c0.2-0.1,0.3-0.3,0.5-0.4c0,0,1-0.8,0.4-0.4c-0.5,0.4,0.5-0.3,0.6-0.4c0.2-0.1,1.4-0.7,0.6-0.4
				c0.4-0.2,0.9-0.3,1.4-0.4c-0.9,0.2,0.5,0,0.9,0c0.9,0-0.3-0.2,0.5,0.1c0.2,0.1,0.5,0.1,0.7,0.2c0.8,0.2-0.6-0.3,0.1,0
				c0.5,0.2,0.9,0.5,1.3,0.7c0.2,0.1,0.4,0.3,0.6,0.4c0.6,0.4,0.1,0.1,0.5,0.4c1.7,1.5,3.1,3.1,4.3,5c1,1.6,1.9,3.2,2.7,4.9
				c0.2,0.5,0.4,1,0.7,1.4c0.1,0.2,0.2,0.4,0.3,0.6c0-0.1-0.3-0.7-0.1-0.1c0.4,1,0.8,2.1,1.2,3.1c1.5,4.3,2.7,8.8,3.6,13.3
				c0.5,2.4,0.9,4.9,1.3,7.3c0.4,2.5,0.6,4.2,0.9,6.9c2.5,22.8,1.9,45.9,1.2,68.8c-0.7,25.1-2.3,50.1-5,75.1
				c-2.6,24.4-6.6,48.7-11.1,72.9c-4.4,24.2-9.1,48.3-12.4,72.6c-0.9,6.3-1.7,12.6-2.3,19c-0.3,2.7,2.5,5,5,5
				C107.6,371.4,109.4,369.1,109.7,366.4L109.7,366.4z"/>
		</g>
	</g>
</g>
</svg>
